{
	"asset":{
		"generator":"Khronos glTF Blender I/O v5.1.20",
		"version":"2.0"
	},
	"scene":0,
	"scenes":[
		{
			"name":"Scene",
			"nodes":[
				0,
				1,
				2,
				3,
				4,
				5,
				6,
				7,
				8,
				9,
				10,
				11
			]
		}
	],
	"nodes":[
		{
			"mesh":0,
			"name":"Phone Case",
			"rotation":[
				0,
				0,
				-0.7071068286895752,
				0.7071068286895752
			],
			"scale":[
				3.7189764976501465,
				1.0135937929153442,
				1.7839714288711548
			],
			"translation":[
				-0.10408048331737518,
				4.755330562591553,
				-0.2602143883705139
			]
		},
		{
			"mesh":1,
			"name":"Screen",
			"rotation":[
				0,
				0,
				-0.7071068286895752,
				0.7071068286895752
			],
			"scale":[
				3.7189764976501465,
				1.4390469789505005,
				1.7839714288711548
			],
			"translation":[
				-0.10408048331737518,
				4.755330562591553,
				-0.2602143883705139
			]
		},
		{
			"mesh":2,
			"name":"Volume Button",
			"rotation":[
				0.49999797344207764,
				-0.49999797344207764,
				-0.5000021457672119,
				0.5000020861625671
			],
			"scale":[
				0.7676007151603699,
				1.4363528490066528,
				0.14230984449386597
			],
			"translation":[
				0.11228060722351074,
				6.87732458114624,
				1.6042752265930176
			]
		},
		{
			"mesh":3,
			"name":"Power Button",
			"rotation":[
				0.49999791383743286,
				-0.49999791383743286,
				-0.5000020861625671,
				0.5000020861625671
			],
			"scale":[
				0.4407026469707489,
				1.4363528490066528,
				0.14230984449386597
			],
			"translation":[
				0.11228060722351074,
				5.440038681030273,
				1.6042752265930176
			]
		},
		{
			"mesh":4,
			"name":"Camera Rubber",
			"rotation":[
				0,
				0,
				-0.7071068286895752,
				0.7071068286895752
			],
			"scale":[
				0.9375688433647156,
				1.4390469789505005,
				0.8120994567871094
			],
			"translation":[
				0.31288644671440125,
				7.25869607925415,
				0.5186361074447632
			]
		},
		{
			"mesh":5,
			"name":"Camera.001",
			"rotation":[
				0,
				0,
				-0.7071068286895752,
				0.7071068286895752
			],
			"scale":[
				0.34465348720550537,
				0.47312724590301514,
				0.36154496669769287
			],
			"translation":[
				0.3606734871864319,
				7.686582565307617,
				0.8322259783744812
			]
		},
		{
			"mesh":6,
			"name":"torch",
			"rotation":[
				0,
				0,
				-0.7071068286895752,
				0.7071068286895752
			],
			"scale":[
				0.10012232512235641,
				0.22398340702056885,
				0.10394123196601868
			],
			"translation":[
				0.3513922691345215,
				7.8268232345581055,
				0.24468165636062622
			]
		},
		{
			"mesh":7,
			"name":"Camera Glass",
			"rotation":[
				0,
				0,
				-0.7071068286895752,
				0.7071068286895752
			],
			"scale":[
				0.34465348720550537,
				0.47312724590301514,
				0.36154496669769287
			],
			"translation":[
				0.3606734871864319,
				7.686582565307617,
				0.8322259783744812
			]
		},
		{
			"mesh":8,
			"name":"Camera.002",
			"rotation":[
				0,
				0,
				-0.7071068286895752,
				0.7071068286895752
			],
			"scale":[
				0.34465348720550537,
				0.47312724590301514,
				0.36154496669769287
			],
			"translation":[
				0.3606734871864319,
				6.863195419311523,
				0.8322259783744812
			]
		},
		{
			"mesh":9,
			"name":"Camera Glass.001",
			"rotation":[
				0,
				0,
				-0.7071068286895752,
				0.7071068286895752
			],
			"scale":[
				0.34465348720550537,
				0.47312724590301514,
				0.36154496669769287
			],
			"translation":[
				0.3606734871864319,
				6.863195419311523,
				0.8322259783744812
			]
		},
		{
			"mesh":10,
			"name":"Camera.003",
			"rotation":[
				0,
				0,
				-0.7071068286895752,
				0.7071068286895752
			],
			"scale":[
				0.3241131901741028,
				0.47312724590301514,
				0.3399979770183563
			],
			"translation":[
				0.3606734871864319,
				7.270249366760254,
				0.18786481022834778
			]
		},
		{
			"mesh":11,
			"name":"Camera Glass.002",
			"rotation":[
				0,
				0,
				-0.7071068286895752,
				0.7071068286895752
			],
			"scale":[
				0.3241131901741028,
				0.47312724590301514,
				0.3399979770183563
			],
			"translation":[
				0.3606734871864319,
				7.270249366760254,
				0.18786481022834778
			]
		}
	],
	"materials":[
		{
			"doubleSided":true,
			"name":"Material",
			"pbrMetallicRoughness":{
				"baseColorFactor":[
					0.0033465365413576365,
					0.0033465365413576365,
					0.0033465365413576365,
					1
				],
				"metallicFactor":0,
				"roughnessFactor":0.5
			}
		},
		{
			"doubleSided":true,
			"name":"Material.012",
			"pbrMetallicRoughness":{
				"baseColorTexture":{
					"index":0
				},
				"metallicFactor":0,
				"roughnessFactor":0.5
			}
		},
		{
			"doubleSided":true,
			"name":"Material.002",
			"pbrMetallicRoughness":{
				"baseColorFactor":[
					0.0033465365413576365,
					0.0033465365413576365,
					0.0033465365413576365,
					1
				],
				"metallicFactor":0,
				"roughnessFactor":0.5
			}
		},
		{
			"doubleSided":true,
			"name":"Material.003",
			"pbrMetallicRoughness":{
				"baseColorFactor":[
					0.0033465365413576365,
					0.0033465365413576365,
					0.0033465365413576365,
					1
				],
				"metallicFactor":0,
				"roughnessFactor":0.5
			}
		},
		{
			"doubleSided":true,
			"name":"Material.004"
		},
		{
			"doubleSided":true,
			"name":"Material.005",
			"pbrMetallicRoughness":{
				"baseColorFactor":[
					0.017641959711909294,
					0.017641959711909294,
					0.017641959711909294,
					1
				],
				"metallicFactor":0,
				"roughnessFactor":0.5
			}
		},
		{
			"doubleSided":true,
			"name":"Material.011",
			"pbrMetallicRoughness":{
				"baseColorFactor":[
					0.07834974676370621,
					0.07834974676370621,
					0.07834974676370621,
					1
				],
				"metallicFactor":0,
				"roughnessFactor":0.5
			}
		},
		{
			"doubleSided":true,
			"name":"Material.008"
		},
		{
			"doubleSided":true,
			"name":"Material.006",
			"pbrMetallicRoughness":{
				"baseColorFactor":[
					0.017641959711909294,
					0.017641959711909294,
					0.017641959711909294,
					1
				],
				"metallicFactor":0,
				"roughnessFactor":0.5
			}
		},
		{
			"doubleSided":true,
			"name":"Material.010"
		},
		{
			"doubleSided":true,
			"name":"Material.007",
			"pbrMetallicRoughness":{
				"baseColorFactor":[
					0.017641959711909294,
					0.017641959711909294,
					0.017641959711909294,
					1
				],
				"metallicFactor":0,
				"roughnessFactor":0.5
			}
		},
		{
			"doubleSided":true,
			"name":"Material.009"
		}
	],
	"meshes":[
		{
			"name":"Plane",
			"primitives":[
				{
					"attributes":{
						"POSITION":0,
						"NORMAL":1,
						"TEXCOORD_0":2
					},
					"indices":3,
					"material":0
				}
			]
		},
		{
			"name":"Plane.001",
			"primitives":[
				{
					"attributes":{
						"POSITION":4,
						"NORMAL":5,
						"TEXCOORD_0":6
					},
					"indices":7,
					"material":1
				}
			]
		},
		{
			"name":"Plane.002",
			"primitives":[
				{
					"attributes":{
						"POSITION":8,
						"NORMAL":9,
						"TEXCOORD_0":10
					},
					"indices":11,
					"material":2
				}
			]
		},
		{
			"name":"Plane.003",
			"primitives":[
				{
					"attributes":{
						"POSITION":12,
						"NORMAL":13,
						"TEXCOORD_0":14
					},
					"indices":11,
					"material":3
				}
			]
		},
		{
			"name":"Plane.005",
			"primitives":[
				{
					"attributes":{
						"POSITION":15,
						"NORMAL":16,
						"TEXCOORD_0":17
					},
					"indices":18,
					"material":4
				}
			]
		},
		{
			"name":"Plane.006",
			"primitives":[
				{
					"attributes":{
						"POSITION":19,
						"NORMAL":20,
						"TEXCOORD_0":21
					},
					"indices":22,
					"material":5
				}
			]
		},
		{
			"name":"Plane.007",
			"primitives":[
				{
					"attributes":{
						"POSITION":23,
						"NORMAL":24,
						"TEXCOORD_0":25
					},
					"indices":26,
					"material":6
				}
			]
		},
		{
			"name":"Plane.008",
			"primitives":[
				{
					"attributes":{
						"POSITION":27,
						"NORMAL":28,
						"TEXCOORD_0":29
					},
					"indices":30,
					"material":7
				}
			]
		},
		{
			"name":"Plane.009",
			"primitives":[
				{
					"attributes":{
						"POSITION":31,
						"NORMAL":32,
						"TEXCOORD_0":33
					},
					"indices":22,
					"material":8
				}
			]
		},
		{
			"name":"Plane.010",
			"primitives":[
				{
					"attributes":{
						"POSITION":34,
						"NORMAL":35,
						"TEXCOORD_0":36
					},
					"indices":30,
					"material":9
				}
			]
		},
		{
			"name":"Plane.011",
			"primitives":[
				{
					"attributes":{
						"POSITION":37,
						"NORMAL":38,
						"TEXCOORD_0":39
					},
					"indices":22,
					"material":10
				}
			]
		},
		{
			"name":"Plane.012",
			"primitives":[
				{
					"attributes":{
						"POSITION":40,
						"NORMAL":41,
						"TEXCOORD_0":42
					},
					"indices":30,
					"material":11
				}
			]
		}
	],
	"textures":[
		{
			"sampler":0,
			"source":0
		}
	],
	"images":[
		{
			"mimeType":"image/jpeg",
			"name":"mobile_home_page",
			"uri":"mobile_home_page.jpg"
		}
	],
	"accessors":[
		{
			"bufferView":0,
			"componentType":5126,
			"count":174,
			"max":[
				1,
				0.42262911796569824,
				1
			],
			"min":[
				-1,
				-2.55090659706525e-09,
				-1
			],
			"type":"VEC3"
		},
		{
			"bufferView":1,
			"componentType":5126,
			"count":174,
			"type":"VEC3"
		},
		{
			"bufferView":2,
			"componentType":5126,
			"count":174,
			"type":"VEC2"
		},
		{
			"bufferView":3,
			"componentType":5123,
			"count":378,
			"type":"SCALAR"
		},
		{
			"bufferView":4,
			"componentType":5126,
			"count":24,
			"max":[
				0.9222157001495361,
				-2.55090659706525e-09,
				0.9440338015556335
			],
			"min":[
				-0.9658520221710205,
				-2.55090659706525e-09,
				-0.9440338015556335
			],
			"type":"VEC3"
		},
		{
			"bufferView":5,
			"componentType":5126,
			"count":24,
			"type":"VEC3"
		},
		{
			"bufferView":6,
			"componentType":5126,
			"count":24,
			"type":"VEC2"
		},
		{
			"bufferView":7,
			"componentType":5123,
			"count":66,
			"type":"SCALAR"
		},
		{
			"bufferView":8,
			"componentType":5126,
			"count":288,
			"max":[
				1,
				0,
				1
			],
			"min":[
				-1,
				-0.07596796751022339,
				-1
			],
			"type":"VEC3"
		},
		{
			"bufferView":9,
			"componentType":5126,
			"count":288,
			"type":"VEC3"
		},
		{
			"bufferView":10,
			"componentType":5126,
			"count":288,
			"type":"VEC2"
		},
		{
			"bufferView":11,
			"componentType":5123,
			"count":948,
			"type":"SCALAR"
		},
		{
			"bufferView":12,
			"componentType":5126,
			"count":288,
			"max":[
				1,
				0,
				1
			],
			"min":[
				-1,
				-0.07596796751022339,
				-1
			],
			"type":"VEC3"
		},
		{
			"bufferView":13,
			"componentType":5126,
			"count":288,
			"type":"VEC3"
		},
		{
			"bufferView":14,
			"componentType":5126,
			"count":288,
			"type":"VEC2"
		},
		{
			"bufferView":15,
			"componentType":5126,
			"count":416,
			"max":[
				1,
				0.06851624697446823,
				1
			],
			"min":[
				-1,
				-0.06372278183698654,
				-1
			],
			"type":"VEC3"
		},
		{
			"bufferView":16,
			"componentType":5126,
			"count":416,
			"type":"VEC3"
		},
		{
			"bufferView":17,
			"componentType":5126,
			"count":416,
			"type":"VEC2"
		},
		{
			"bufferView":18,
			"componentType":5123,
			"count":948,
			"type":"SCALAR"
		},
		{
			"bufferView":19,
			"componentType":5126,
			"count":5520,
			"max":[
				1,
				0.02518944814801216,
				1.00065279006958
			],
			"min":[
				-1,
				-0.14695511758327484,
				-1
			],
			"type":"VEC3"
		},
		{
			"bufferView":20,
			"componentType":5126,
			"count":5520,
			"type":"VEC3"
		},
		{
			"bufferView":21,
			"componentType":5126,
			"count":5520,
			"type":"VEC2"
		},
		{
			"bufferView":22,
			"componentType":5123,
			"count":16554,
			"type":"SCALAR"
		},
		{
			"bufferView":23,
			"componentType":5126,
			"count":4080,
			"max":[
				1,
				0,
				1.00065279006958
			],
			"min":[
				-1,
				-0.14695511758327484,
				-1
			],
			"type":"VEC3"
		},
		{
			"bufferView":24,
			"componentType":5126,
			"count":4080,
			"type":"VEC3"
		},
		{
			"bufferView":25,
			"componentType":5126,
			"count":4080,
			"type":"VEC2"
		},
		{
			"bufferView":26,
			"componentType":5123,
			"count":12948,
			"type":"SCALAR"
		},
		{
			"bufferView":27,
			"componentType":5126,
			"count":240,
			"max":[
				0.9326521158218384,
				0.02518944814801216,
				0.9333049058914185
			],
			"min":[
				-0.9326519966125488,
				0.02518944814801216,
				-0.9319992661476135
			],
			"type":"VEC3"
		},
		{
			"bufferView":28,
			"componentType":5126,
			"count":240,
			"type":"VEC3"
		},
		{
			"bufferView":29,
			"componentType":5126,
			"count":240,
			"type":"VEC2"
		},
		{
			"bufferView":30,
			"componentType":5123,
			"count":714,
			"type":"SCALAR"
		},
		{
			"bufferView":31,
			"componentType":5126,
			"count":5520,
			"max":[
				1,
				0.02518944814801216,
				1.00065279006958
			],
			"min":[
				-1,
				-0.14695511758327484,
				-1
			],
			"type":"VEC3"
		},
		{
			"bufferView":32,
			"componentType":5126,
			"count":5520,
			"type":"VEC3"
		},
		{
			"bufferView":33,
			"componentType":5126,
			"count":5520,
			"type":"VEC2"
		},
		{
			"bufferView":34,
			"componentType":5126,
			"count":240,
			"max":[
				0.9326521158218384,
				0.02518944814801216,
				0.9333049058914185
			],
			"min":[
				-0.9326519966125488,
				0.02518944814801216,
				-0.9319992661476135
			],
			"type":"VEC3"
		},
		{
			"bufferView":35,
			"componentType":5126,
			"count":240,
			"type":"VEC3"
		},
		{
			"bufferView":36,
			"componentType":5126,
			"count":240,
			"type":"VEC2"
		},
		{
			"bufferView":37,
			"componentType":5126,
			"count":5520,
			"max":[
				1,
				0.02518944814801216,
				1.00065279006958
			],
			"min":[
				-1,
				-0.14695511758327484,
				-1
			],
			"type":"VEC3"
		},
		{
			"bufferView":38,
			"componentType":5126,
			"count":5520,
			"type":"VEC3"
		},
		{
			"bufferView":39,
			"componentType":5126,
			"count":5520,
			"type":"VEC2"
		},
		{
			"bufferView":40,
			"componentType":5126,
			"count":240,
			"max":[
				0.9326521158218384,
				0.02518944814801216,
				0.9333049058914185
			],
			"min":[
				-0.9326519966125488,
				0.02518944814801216,
				-0.9319992661476135
			],
			"type":"VEC3"
		},
		{
			"bufferView":41,
			"componentType":5126,
			"count":240,
			"type":"VEC3"
		},
		{
			"bufferView":42,
			"componentType":5126,
			"count":240,
			"type":"VEC2"
		}
	],
	"bufferViews":[
		{
			"buffer":0,
			"byteLength":2088,
			"byteOffset":0,
			"target":34962
		},
		{
			"buffer":0,
			"byteLength":2088,
			"byteOffset":2088,
			"target":34962
		},
		{
			"buffer":0,
			"byteLength":1392,
			"byteOffset":4176,
			"target":34962
		},
		{
			"buffer":0,
			"byteLength":756,
			"byteOffset":5568,
			"target":34963
		},
		{
			"buffer":0,
			"byteLength":288,
			"byteOffset":6324,
			"target":34962
		},
		{
			"buffer":0,
			"byteLength":288,
			"byteOffset":6612,
			"target":34962
		},
		{
			"buffer":0,
			"byteLength":192,
			"byteOffset":6900,
			"target":34962
		},
		{
			"buffer":0,
			"byteLength":132,
			"byteOffset":7092,
			"target":34963
		},
		{
			"buffer":0,
			"byteLength":3456,
			"byteOffset":7224,
			"target":34962
		},
		{
			"buffer":0,
			"byteLength":3456,
			"byteOffset":10680,
			"target":34962
		},
		{
			"buffer":0,
			"byteLength":2304,
			"byteOffset":14136,
			"target":34962
		},
		{
			"buffer":0,
			"byteLength":1896,
			"byteOffset":16440,
			"target":34963
		},
		{
			"buffer":0,
			"byteLength":3456,
			"byteOffset":18336,
			"target":34962
		},
		{
			"buffer":0,
			"byteLength":3456,
			"byteOffset":21792,
			"target":34962
		},
		{
			"buffer":0,
			"byteLength":2304,
			"byteOffset":25248,
			"target":34962
		},
		{
			"buffer":0,
			"byteLength":4992,
			"byteOffset":27552,
			"target":34962
		},
		{
			"buffer":0,
			"byteLength":4992,
			"byteOffset":32544,
			"target":34962
		},
		{
			"buffer":0,
			"byteLength":3328,
			"byteOffset":37536,
			"target":34962
		},
		{
			"buffer":0,
			"byteLength":1896,
			"byteOffset":40864,
			"target":34963
		},
		{
			"buffer":0,
			"byteLength":66240,
			"byteOffset":42760,
			"target":34962
		},
		{
			"buffer":0,
			"byteLength":66240,
			"byteOffset":109000,
			"target":34962
		},
		{
			"buffer":0,
			"byteLength":44160,
			"byteOffset":175240,
			"target":34962
		},
		{
			"buffer":0,
			"byteLength":33108,
			"byteOffset":219400,
			"target":34963
		},
		{
			"buffer":0,
			"byteLength":48960,
			"byteOffset":252508,
			"target":34962
		},
		{
			"buffer":0,
			"byteLength":48960,
			"byteOffset":301468,
			"target":34962
		},
		{
			"buffer":0,
			"byteLength":32640,
			"byteOffset":350428,
			"target":34962
		},
		{
			"buffer":0,
			"byteLength":25896,
			"byteOffset":383068,
			"target":34963
		},
		{
			"buffer":0,
			"byteLength":2880,
			"byteOffset":408964,
			"target":34962
		},
		{
			"buffer":0,
			"byteLength":2880,
			"byteOffset":411844,
			"target":34962
		},
		{
			"buffer":0,
			"byteLength":1920,
			"byteOffset":414724,
			"target":34962
		},
		{
			"buffer":0,
			"byteLength":1428,
			"byteOffset":416644,
			"target":34963
		},
		{
			"buffer":0,
			"byteLength":66240,
			"byteOffset":418072,
			"target":34962
		},
		{
			"buffer":0,
			"byteLength":66240,
			"byteOffset":484312,
			"target":34962
		},
		{
			"buffer":0,
			"byteLength":44160,
			"byteOffset":550552,
			"target":34962
		},
		{
			"buffer":0,
			"byteLength":2880,
			"byteOffset":594712,
			"target":34962
		},
		{
			"buffer":0,
			"byteLength":2880,
			"byteOffset":597592,
			"target":34962
		},
		{
			"buffer":0,
			"byteLength":1920,
			"byteOffset":600472,
			"target":34962
		},
		{
			"buffer":0,
			"byteLength":66240,
			"byteOffset":602392,
			"target":34962
		},
		{
			"buffer":0,
			"byteLength":66240,
			"byteOffset":668632,
			"target":34962
		},
		{
			"buffer":0,
			"byteLength":44160,
			"byteOffset":734872,
			"target":34962
		},
		{
			"buffer":0,
			"byteLength":2880,
			"byteOffset":779032,
			"target":34962
		},
		{
			"buffer":0,
			"byteLength":2880,
			"byteOffset":781912,
			"target":34962
		},
		{
			"buffer":0,
			"byteLength":1920,
			"byteOffset":784792,
			"target":34962
		}
	],
	"samplers":[
		{
			"magFilter":9729,
			"minFilter":9987
		}
	],
	"buffers":[
		{
			"byteLength":786712,
			"uri":"phone-frame.bin"
		}
	]
}
